<svg version="1.2" xmlns="http://www.w3.org/2000/svg" viewBox="0 0 800 800" width="800" height="800">
	<style>
		.s0 { fill: #3f70b7;stroke: #ff0000;stroke-width: .4 } 
	</style>
	<g id="SVGRepo_bgCarrier">
	</g>
	<g id="SVGRepo_tracerCarrier">
	</g>
	<g id="SVGRepo_iconCarrier">
		<path class="s0" d="m726.73 74.09c24.68 24.03 25.18 63.51 1.13 88.17l-104.13 104.14-120.78 120.81-171.41 171.41-126.3 41.01 38.11-129.22 168.26-168.24 117.29-117.29 109.67-109.64c24.03-24.68 63.51-25.2 88.16-1.15z"/>
		<path class="s0" d="m650.43 413.86l39.69 219.36-41.21 41.21-145.96-287.22 120.78-120.81zm-121.53-228.97l-117.29 117.28-274.45-139.51 41.21-41.21 350.51 63.41z"/>
		<path class="s0" d="m331.54 558.62l-20.25 143.54-44.14 44.18-61.91-146.71z"/>
		<path class="s0" d="m243.35 470.41l-38.11 129.22-147.76-62.96 44.83-43.49z"/>
		<path class="s0" d="m411.6 319.66q-1.03 0-2.05-0.12-1.02-0.13-2.01-0.37-1-0.24-1.97-0.59-0.96-0.36-1.88-0.82l-274.46-139.52c-2.46-1.25-4.59-3.07-6.21-5.3-1.63-2.23-2.7-4.82-3.13-7.54-0.44-2.73-0.22-5.52 0.64-8.14 0.85-2.63 2.31-5.02 4.26-6.97l41.21-41.21q1.5-1.5 3.31-2.59 1.81-1.1 3.83-1.73 2.02-0.63 4.14-0.77 2.11-0.13 4.2 0.25l350.51 63.42c2.26 0.4 4.41 1.25 6.34 2.5 1.93 1.24 3.6 2.85 4.91 4.73 1.31 1.89 2.23 4.02 2.72 6.26 0.49 2.24 0.53 4.56 0.12 6.82-0.41 2.26-1.26 4.42-2.5 6.35-1.24 1.93-2.85 3.6-4.74 4.91-1.89 1.31-4.01 2.23-6.26 2.72-2.24 0.48-4.56 0.52-6.82 0.11l-341.5-61.78-17.71 17.71 252.99 128.59c3.5 1.78 6.31 4.69 7.96 8.26 1.65 3.57 2.04 7.59 1.13 11.41-0.92 3.83-3.1 7.23-6.19 9.66-3.09 2.43-6.91 3.75-10.84 3.75zm237.31 372.26q-2.42 0-4.75-0.66-2.33-0.66-4.39-1.92-2.07-1.27-3.71-3.05-1.64-1.78-2.74-3.94l-145.96-287.22c-2.15-4.14-2.56-8.96-1.13-13.4 1.43-4.44 4.57-8.13 8.72-10.25 4.16-2.11 8.99-2.47 13.42-1.01 4.43 1.47 8.09 4.64 10.16 8.82l135.05 265.75 17.7-17.71-64.75-357.81c-0.81-4.56 0.22-9.25 2.86-13.05 2.64-3.8 6.68-6.4 11.24-7.22 4.55-0.82 9.24 0.19 13.05 2.82 3.81 2.63 6.42 6.67 7.25 11.22l66.39 366.82q0.38 2.08 0.25 4.2-0.14 2.11-0.77 4.13-0.63 2.02-1.73 3.84-1.09 1.81-2.59 3.3l-41.21 41.21q-1.22 1.22-2.65 2.18-1.43 0.96-3.02 1.62-1.59 0.65-3.28 0.99-1.69 0.34-3.41 0.34z"/>
		<path class="s0" d="m267.15 763.82q-2.57 0-5.04-0.74-2.47-0.75-4.62-2.17-2.15-1.43-3.79-3.41-1.65-1.99-2.65-4.36l-59.17-140.2-141.25-60.19c-2.65-1.13-4.99-2.9-6.79-5.15-1.8-2.25-3.02-4.91-3.55-7.74-0.53-2.83-0.34-5.76 0.53-8.5 0.88-2.75 2.42-5.24 4.49-7.24l44.83-43.49q0.96-0.93 2.05-1.7 1.09-0.77 2.28-1.37 1.2-0.6 2.47-1.01 1.27-0.41 2.59-0.63l135.45-21.87 391.23-391.18c14.99-15.4 35.3-23.97 57.03-23.97 20.94 0 40.72 8.05 55.7 22.67 15.27 14.87 23.84 34.81 24.11 56.14 0.27 21.33-7.78 41.48-22.68 56.75l-392.33 392.39-19.44 137.75q-0.2 1.4-0.62 2.75-0.42 1.35-1.05 2.61-0.63 1.26-1.45 2.41-0.83 1.15-1.83 2.15l-44.13 44.18q-1.22 1.21-2.65 2.17-1.43 0.96-3.02 1.62-1.59 0.66-3.28 1-1.69 0.33-3.42 0.33zm-178.61-232.92l123.55 52.65q1.55 0.66 2.95 1.6 1.39 0.95 2.58 2.14 1.19 1.19 2.13 2.59 0.94 1.4 1.6 2.95l51.81 122.76 21.63-21.66 19.44-137.75q0.2-1.4 0.62-2.75 0.42-1.35 1.05-2.62 0.63-1.26 1.45-2.41 0.83-1.14 1.83-2.14l396.31-396.37c8.22-8.42 12.75-19.75 12.6-31.73q-0.05-4.42-0.96-8.75-0.91-4.32-2.66-8.38-1.74-4.06-4.25-7.7-2.51-3.64-5.68-6.71-3.11-3.05-6.74-5.43-3.63-2.39-7.66-4.03-4.02-1.64-8.29-2.47-4.27-0.83-8.61-0.82-4.5-0.02-8.91 0.87-4.41 0.88-8.55 2.63-4.14 1.75-7.85 4.29-3.71 2.54-6.84 5.78l-395.38 395.33q-0.97 0.97-2.07 1.78-1.11 0.8-2.33 1.42-1.22 0.63-2.52 1.05-1.3 0.43-2.65 0.65l-135.6 21.9zm561.89-99.55c-3.46 0-6.84-1.03-9.71-2.95-2.88-1.92-5.12-4.65-6.44-7.85-1.33-3.19-1.67-6.71-1-10.1 0.68-3.39 2.34-6.51 4.79-8.95l51.47-51.47c3.27-3.36 7.74-5.27 12.42-5.3 4.68-0.03 9.17 1.81 12.48 5.12 3.31 3.31 5.16 7.81 5.12 12.49-0.03 4.68-1.94 9.15-5.3 12.41l-51.47 51.48q-1.22 1.21-2.65 2.17-1.43 0.96-3.02 1.62-1.59 0.66-3.28 0.99-1.69 0.34-3.41 0.34zm22.98 93.63c-3.46 0-6.84-1.03-9.71-2.95-2.88-1.92-5.12-4.65-6.44-7.84-1.33-3.19-1.67-6.71-1-10.1 0.67-3.39 2.34-6.51 4.78-8.95l51.45-51.48c3.29-3.22 7.72-5.02 12.33-5 4.6 0.02 9.02 1.86 12.27 5.12 3.26 3.26 5.1 7.67 5.13 12.27 0.02 4.61-1.77 9.04-5 12.33l-51.45 51.47q-1.21 1.22-2.65 2.18-1.43 0.96-3.02 1.62-1.59 0.66-3.28 1-1.69 0.33-3.41 0.33zm-280.83-351.48c-3.46-0.01-6.84-1.03-9.71-2.95-2.88-1.92-5.12-4.65-6.44-7.85-1.33-3.19-1.67-6.71-1-10.1 0.68-3.39 2.34-6.51 4.79-8.95l51.47-51.45c3.27-3.36 7.74-5.26 12.42-5.29 4.68-0.04 9.17 1.81 12.48 5.12 3.31 3.31 5.15 7.81 5.12 12.49-0.04 4.68-1.94 9.15-5.3 12.41l-51.47 51.45q-1.22 1.22-2.65 2.17-1.43 0.96-3.02 1.62-1.59 0.66-3.28 0.99-1.69 0.34-3.41 0.34zm-93.61-22.93c-3.46 0-6.84-1.03-9.71-2.95-2.88-1.92-5.12-4.65-6.44-7.84-1.32-3.2-1.67-6.71-1-10.1 0.68-3.39 2.34-6.51 4.78-8.95l51.48-51.5c3.29-3.23 7.72-5.03 12.32-5 4.61 0.02 9.02 1.86 12.28 5.11 3.26 3.26 5.1 7.67 5.12 12.28 0.03 4.6-1.77 9.03-4.99 12.32l-51.48 51.5q-1.21 1.22-2.65 2.18-1.43 0.96-3.02 1.62-1.59 0.66-3.28 0.99-1.69 0.34-3.41 0.34z"/>
		<path class="s0" d="m205.24 617.12c-4.17 0-8.19-1.49-11.35-4.2-3.16-2.7-5.26-6.45-5.91-10.56-0.65-4.11 0.19-8.31 2.36-11.86 2.18-3.55 5.54-6.21 9.5-7.5l126.3-41.01c4.41-1.43 9.21-1.05 13.34 1.06 4.13 2.1 7.26 5.76 8.69 10.17 1.43 4.41 1.05 9.21-1.05 13.34-2.11 4.13-5.77 7.26-10.18 8.69l-126.3 41.01q-0.65 0.21-1.32 0.37-0.67 0.16-1.35 0.27-0.68 0.11-1.36 0.16-0.69 0.06-1.37 0.06z"/>
		<path class="s0" d="m205.25 617.12c-2.72 0-5.41-0.63-7.84-1.85-2.43-1.22-4.54-2.98-6.17-5.16-1.63-2.18-2.73-4.71-3.21-7.39-0.48-2.67-0.33-5.43 0.44-8.03l38.11-129.23c1.31-4.44 4.34-8.19 8.41-10.4 4.07-2.22 8.86-2.73 13.31-1.42 4.45 1.31 8.19 4.34 10.41 8.41 2.21 4.07 2.72 8.86 1.41 13.31l-38.11 129.22c-0.53 1.8-1.35 3.5-2.42 5.04-1.07 1.53-2.38 2.89-3.88 4.01-1.5 1.13-3.17 2-4.95 2.59-1.78 0.59-3.64 0.9-5.51 0.9z"/>
	</g>
</svg>