<svg version="1.2" xmlns="http://www.w3.org/2000/svg" viewBox="0 0 800 800" width="800" height="800">
	<style>
		.s0 { fill: #47b96d } 
	</style>
	<g id="SVGRepo_bgCarrier">
	</g>
	<g id="SVGRepo_tracerCarrier">
	</g>
	<g id="SVGRepo_iconCarrier">
		<g>
			<path class="s0" d="m198.57 387.23l78.17-120.17c0 0-116.77-46.39-171.17-4.81-54.39 41.6-105.56 156.79-105.56 156.79l57.98 33.62c0-0.01 73.39-142.22 140.58-65.43z"/>
			<path class="s0" d="m412.78 601.43l120.16-78.17c0 0 46.39 116.77 4.81 171.17-41.6 54.37-156.79 105.57-156.79 105.57l-33.59-57.99c0 0 142.21-73.39 65.41-140.58z"/>
			<path class="s0" d="m322.96 567.01l-20.63-20.61c-37.5 97.47-125.59 76.86-125.59 76.86 0 0-20.61-88.09 76.86-125.58l-20.61-20.61c-54.37-9.38-123.73 56.22-134.99 119.95-11.23 63.72-13.11 118.06-13.11 118.06 0 0 54.35-1.85 118.09-13.11 63.75-11.25 129.35-80.59 119.98-134.96z"/>
			<path class="s0" d="m789.41 10.59c-85.06-39.87-300.46 34.69-420.26 193.58-91.29 121.02-140.14 202.56-140.14 202.56l72.51 72.51 19.24 19.24 72.49 72.49c0 0 81.59-48.83 202.61-140.09 158.84-119.83 233.42-335.23 193.55-420.29zm-360.3 360.3c-20.02-20.02-20.02-52.49 0-72.51 20.02-20.02 52.46-20.02 72.51 0.03 20.02 20.02 20.02 52.46 0 72.48-20.04 20.02-52.49 20.02-72.51 0zm120.19-120.16c-25.88-25.91-25.88-67.85 0-93.73 25.85-25.88 67.82-25.88 93.7 0 25.88 25.88 25.88 67.82 0 93.73-25.88 25.85-67.85 25.85-93.7 0z"/>
		</g>
	</g>
</svg>