<?xml version="1.0" encoding="UTF-8"?>
<svg id="_Слой" data-name="Слой" xmlns="http://www.w3.org/2000/svg" viewBox="0 0 649.9 375.49">
  <defs>
    <style>
      .cls-1 {
        fill: #f9e5ef;
      }

      .cls-2 {
        fill: #fff;
      }

      .cls-3 {
        fill: #bfbef9;
      }

      .cls-4 {
        fill: #47B96D;
      }

      .cls-5 {
        fill: #a1c5e2;
      }

      .cls-6 {
        fill: #e7e6ff;
      }

      .cls-7 {
        fill: #0e2549;
      }

      .cls-8 {
        fill: #1b2746;
      }
    </style>
  </defs>
  <path class="cls-6" d="m89.41,374.95l-2.41-1.23s-69.11-36.82-57.7-110.61c11.41-73.8,65.42-86.79,135.43-123.25C274.29,82.8,307.27,19.14,388.67,2.91c81.4-16.23,254.87,33.48,260.95,197.81,6.09,164.34-90.28,174.35-90.28,174.35l-469.93-.13h0Z"/>
  <g>
    <polygon class="cls-2" points="133.79 81.06 132.26 66.4 140.03 67.2 142.47 81.18 133.79 81.06"/>
    <path class="cls-7" d="m143.12,81.73l-9.81-.13-1.64-15.8,8.83.9,2.63,15.02Zm-8.84-1.2l7.55.1-2.27-12.94-6.7-.69,1.41,13.52Z"/>
    <polygon class="cls-2" points="155.4 83.73 162.67 72.07 168.76 76.52 162.51 88.98 155.4 83.73"/>
    <path class="cls-7" d="m162.7,89.79l-8.02-5.92,7.83-12.57,6.92,5.05-6.74,13.44Zm-6.58-6.2l6.19,4.57,5.75-11.48-5.25-3.83-6.69,10.74Z"/>
    <path class="cls-4" d="m132.62,69.55s-10.86,1.81-11.1-2.92c-.24-4.73.06-4.42.06-4.42l18.89.25.29,5.7s-7.09-1.69-8.15,1.38Z"/>
    <path class="cls-4" d="m160.94,75.17s-10.67-4.37-8.41-8.75c2.27-4.38,2.37-3.95,2.37-3.95l16.86,10.14-2.72,5.11s-5.54-4.76-8.1-2.56Z"/>
    <rect class="cls-7" x="162.72" y="57.63" width="1.13" height="20.44" transform="translate(20.96 172.78) rotate(-58.96)"/>
    <rect class="cls-7" x="130.4" y="52.83" width="1.09" height="19.63" transform="translate(66.54 192.73) rotate(-89.23)"/>
    <path class="cls-7" d="m157.01,78.34s-14.8,22.89-14.62,26.03c.17,3.13,14.1,7.83,14.1,7.83l49.1-8.79s1.57-8.59-9.49-8.85c-7.89-.19-39.43,7.98-39.43,7.98l10.27-17.93-9.92-6.27Z"/>
    <path class="cls-7" d="m208.72,97.14s-7.14-3.66-17.41-2.26c-10.27,1.39-38.13,11.84-40.74,10.27-2.61-1.57-5.92-28.38-5.92-28.38l-13.41,1.57s4.25,36.41,10.85,38.41l68.54.06-1.92-19.67Z"/>
    <path class="cls-7" d="m248.34,71.15s8.11-4.05,3.84-13.41c-4.8-10.52-26.76-11.33-29.82,9.78-.88,6.04-6.05,7.32-7.04,7.54-8.83,2-10.58,10.02-8.66,14.08,3.52,7.43,26.6,5.96,37.76-1.84,5.92-4.13,3.91-16.15,3.91-16.15Z"/>
    <path class="cls-2" d="m232.82,67.14s-2.04,11.45-2.6,11.95c-1.93,1.72-2.95,2.29-4.01,2.34-.41.02-1.67,6.73.26,10,3.11,5.26,10.2,8.05,10.2,8.05l10.15-8.99-2.84-4.15s-2.41-1.96-3.32-3.45c-.92-1.49,1.05-13.16,1.05-13.16l-8.88-2.59Z"/>
    <path class="cls-7" d="m236.77,100.09l-.31-.12c-.3-.12-7.3-2.92-10.46-8.28-1.92-3.25-.92-9.39-.37-10.42.17-.31.39-.38.55-.39.92-.04,1.87-.61,3.63-2.17.39-.73,1.55-6.52,2.47-11.67l.11-.59,9.92,2.89-.08.47c-.95,5.64-1.63,11.96-1.12,12.79.86,1.39,3.18,3.29,3.21,3.31l.06.05,3.15,4.61-10.76,9.52Zm-10.26-18.15c-.43,1.15-1.16,6.55.42,9.21,2.62,4.43,8.26,7.1,9.63,7.69l9.54-8.45-2.53-3.7c-.4-.33-2.5-2.1-3.38-3.53-.91-1.48.44-10.31.89-13.06l-7.85-2.28c-1.32,7.34-2.21,11.26-2.67,11.66-1.87,1.66-2.94,2.32-4.06,2.45Z"/>
    <path class="cls-2" d="m232.88,69.6c-.75-1.46-1.95-4.22-1.13-5.82.82-1.59,2.49-.42,2.9.13.27.37,4.65-8.7,4.65-8.7l12.56,5.83s-2.46,9.03-5.3,13.1c-2.85,4.09-5.46,4.1-8.69,2.48-1.6-.8-2.64-1.82-3.33-2.86l-1.66-4.17Z"/>
    <path class="cls-7" d="m241.4,78.17c-1.14,0-2.38-.36-3.78-1.06-1.5-.75-2.69-1.77-3.54-3.04-.17-.25-.1-.58.15-.75.25-.17.58-.1.75.15.74,1.11,1.8,2.01,3.12,2.68,2.93,1.47,5.29,1.59,8-2.31,2.4-3.44,4.56-10.65,5.09-12.5l-11.66-5.41c-4.1,8.47-4.48,8.51-4.83,8.54l-.3.03-.2-.26c-.2-.26-.86-.76-1.37-.71-.16.01-.4.08-.62.51-.51,1-.1,2.94,1.13,5.32.14.26.03.59-.23.73-.26.14-.59.03-.73-.23-1-1.94-2.01-4.6-1.13-6.31.43-.84,1.05-1.05,1.49-1.09.72-.06,1.41.31,1.86.68.73-1.18,2.57-4.81,4.19-8.15l.23-.48,13.45,6.24-.12.44c-.1.37-2.51,9.17-5.37,13.27-1.75,2.51-3.5,3.71-5.6,3.71Z"/>
    <path class="cls-7" d="m242.54,65.31c-.11,0-.23-.04-.33-.11-.02-.02-1.32-.99-2.52-.93-.3.01-.55-.22-.56-.51-.01-.3.22-.55.51-.56,1.61-.08,3.16,1.1,3.23,1.15.24.18.28.52.1.76-.11.14-.27.21-.43.21Z"/>
    <path class="cls-7" d="m248.13,68.38c-.16,0-.32-.07-.43-.21-.01-.02-.73-.92-1.75-1.05-.29-.04-.5-.31-.46-.61.04-.3.31-.5.61-.46,1.47.2,2.42,1.41,2.46,1.46.18.24.14.57-.1.76-.1.08-.21.11-.33.11Z"/>
    <path class="cls-7" d="m249.96,68.78s-.81-4.44-.97-7.26c-.02-.3-14.07,1.8-14.07,1.8l3.09-9.98,14.71,6.14-2.76,9.3Z"/>
    <path class="cls-7" d="m243.46,73.43c.09.32-1.19.84-2.04.42-2.15-1.05-1.82-2.47-1.46-1.99.14.18.6.73,1.71,1.17,1.41.57,1.69.03,1.8.4Z"/>
    <path class="cls-7" d="m246.3,70.03c-.05,0-.11,0-.16-.03-.28-.09-.44-.39-.35-.68l.16-.5c.09-.28.39-.44.68-.35.28.09.44.39.35.68l-.16.5c-.07.23-.29.38-.51.38Z"/>
    <path class="cls-7" d="m240.42,67.21c-.05,0-.11,0-.16-.03-.28-.09-.44-.39-.35-.68l.16-.5c.09-.28.39-.44.68-.35.28.09.44.39.35.68l-.16.5c-.07.23-.28.38-.51.38Z"/>
    <path class="cls-7" d="m242.9,71.96c-.48,0-.93-.11-1.01-.14-.28-.11-.41-.42-.3-.7.11-.28.42-.41.7-.3.19.06.74.1.95.03,0-1.87.06-2.01.11-2.12.13-.27.45-.38.72-.26.24.11.35.38.29.62,0,.07-.05.42-.04,1.82,0,.33-.15.61-.42.8-.28.19-.65.25-1,.25Z"/>
    <path class="cls-3" d="m220.73,80.25s-11.75,4.53-14.36,18.63l-.78,4.53,14.2.17-9.56,13.83,49.16.52-10.35-16.1,10.35-1.62s-6.67-18.61-12.8-18.56c-3.67.03-8.1,3.66-11.49,3.13-3.4-.52-10.55-6.74-14.36-4.53Z"/>
    <path class="cls-8" d="m260.38,118.48l-51.18-.54,9.56-13.83-13.82-.17.89-5.15c2.56-13.81,13.87-18.7,14.66-19.02,2.72-1.54,6.65.58,10.12,2.45,1.77.96,3.45,1.86,4.56,2.03,1.65.25,3.63-.59,5.72-1.48,1.9-.81,3.86-1.65,5.68-1.66h.02c6.43,0,13.01,18.15,13.29,18.92l.22.61-10.17,1.59,10.44,16.24Zm-49.14-1.6l47.15.5-10.25-15.95,10.52-1.65c-2.03-5.44-7.51-17.59-12.05-17.59h-.02c-1.61.01-3.47.8-5.27,1.57-2.14.91-4.35,1.86-6.31,1.56-1.3-.2-2.97-1.1-4.91-2.15-3.24-1.74-6.9-3.72-9.1-2.45l-.08.04c-.11.04-11.5,4.6-14.03,18.22l-.67,3.9,14.58.18-9.56,13.83Z"/>
    <path class="cls-2" d="m209.57,98.36s-1.23,17.04.99,17.82c2.22.78,5.13-4.98,5.94-5.62.7-.55,2.96-9.93,2.96-9.93l-9.88-2.26Z"/>
    <path class="cls-7" d="m210.98,116.79c-.2,0-.4-.03-.6-.1-.86-.31-1.74-1.7-1.68-9.71.03-4.32.34-8.61.34-8.65l.05-.63,11.03,2.53-.13.53c-.86,3.57-2.41,9.65-3.15,10.23-.15.12-.57.74-.94,1.28-1.25,1.84-3.08,4.53-4.9,4.53Zm-.92-17.76c-.59,8.64-.29,16.2.67,16.65,1.23.44,3.27-2.57,4.26-4.02.56-.83.88-1.28,1.14-1.5.41-.55,1.65-4.96,2.67-9.13l-8.74-2Zm6.06,11.14h0Zm.03-.03h0s0,0,0,0Z"/>
    <path class="cls-2" d="m257.44,97.44s4.35,18.25,2.14,19.04c-2.22.78-8.68-3.67-8.02-4.28.66-.61-1.77-12.73-1.77-12.73l7.66-2.03Z"/>
    <path class="cls-7" d="m259.02,117.1c-2.54,0-7.13-3.03-7.88-4.27-.28-.46-.14-.78-.02-.94.2-.9-.77-6.92-1.85-12.32l-.1-.5,8.68-2.3.13.54s1.1,4.63,1.91,9.26c1.5,8.59.83,10.08-.11,10.41-.22.08-.47.11-.74.11Zm-6.93-4.77c.64,1.04,5.67,4.22,7.31,3.64.08-.07.87-.98-.64-9.51-.63-3.56-1.41-7.05-1.71-8.35l-6.63,1.76c1.89,9.53,1.88,11.82,1.67,12.47Z"/>
    <polygon class="cls-3" points="207.61 96.21 206.34 102.89 219.19 103.04 221.4 96.01 207.61 96.21"/>
    <rect class="cls-4" x="230.69" y="93.14" width="8.6" height="18.06"/>
    <path class="cls-8" d="m239.83,111.74h-9.68v-19.13h9.68v19.13Zm-8.6-1.08h7.52v-16.98h-7.52v16.98Z"/>
    <path class="cls-2" d="m259.54,115.76c-1.02,4.71-15.35-9.09-15.35-9.09,0,0-5.32,2.32-6.04,2.03-1.5-.6-3.92-5.82-3.59-6.89.33-1.07,4.68-1.18,4.68-1.18,0,0,.08-2.53.05-3.13,0-.13,1.13-.04,1.51.2.51.32,1.39,1.83,1.39,1.83l1.08,1.59,13.7,5.87s3.57,4.13,2.57,8.77Z"/>
    <path class="cls-7" d="m258.56,117.26c-4.08,0-12.63-8.13-14.5-9.95-2.46,1.06-5.38,2.19-6.12,1.89-1.74-.69-4.33-6.14-3.91-7.55.35-1.14,2.89-1.46,4.68-1.55.02-.86.05-2.19.03-2.57l-.02-.33.3-.2c.41-.24,1.64-.03,2.05.23.57.36,1.33,1.6,1.56,2l.98,1.44,13.55,5.81c.27.12.4.43.28.71-.12.27-.43.4-.71.28l-13.84-5.93-1.19-1.75c-.4-.68-.98-1.5-1.22-1.65-.11-.07-.42-.13-.68-.16,0,.94-.05,2.57-.06,2.65l-.02.51h-.51c-1.98.06-3.98.45-4.19.82-.21.8,1.99,5.65,3.25,6.21.57.04,3.36-1.01,5.65-2.01l.34-.15.26.26c2.93,2.9,11.2,10.32,14.24,9.87.35-.05.58-.21.74-.51.14-.26.47-.36.73-.22.26.14.36.47.22.73-.32.6-.85.97-1.53,1.07-.13.02-.26.03-.4.03Z"/>
    <path class="cls-2" d="m212.27,108.23l14.53-8.01,1.11-1.58s.9-1.51,1.42-1.83c.39-.24,1.37-.33,1.36-.2-.03.6.01,3.19.01,3.19,0,0,4.73.1,5.07,1.18.34,1.08-2.12,6.29-3.66,6.87-.74.28-6.23-2.08-6.23-2.08,0,0-13.05,13.21-15.1,9.78l1.48-7.31Z"/>
    <path class="cls-7" d="m211.17,116.77c-.1,0-.2,0-.29-.02-.56-.07-.99-.35-1.27-.81-.15-.26-.07-.59.19-.74.26-.15.59-.07.74.19.07.12.19.25.48.29,2.78.37,11.41-7.31,14.5-10.3l.26-.25.33.14c2.38,1.03,5.28,2.1,5.85,2.06,1.28-.54,3.53-5.38,3.31-6.2-.23-.37-2.41-.75-4.57-.8h-.52s0-.53,0-.53c0-.09-.03-1.73-.02-2.69-.2.03-.42.09-.53.15-.25.15-.84.97-1.24,1.64l-.02.03-1.18,1.69-14.64,8.08c-.26.14-.59.05-.73-.21-.14-.26-.05-.59.21-.73l14.42-7.95,1.02-1.47c.24-.4,1.02-1.64,1.6-1.99.38-.23,1.48-.48,1.9-.23.19.11.29.31.28.52-.02.41,0,1.85,0,2.63,1.93.08,4.69.39,5.06,1.54.45,1.42-2.19,6.86-3.98,7.54-.75.29-3.77-.87-6.3-1.95-1.94,1.86-11.03,10.37-14.84,10.37Zm20.8-9.44h0Z"/>
    <polygon class="cls-3" points="246.38 95.27 248.09 101.53 258.67 99.77 256.64 94.87 246.38 95.27"/>
    <path class="cls-7" d="m219.45,103.97s-.05,0-.07,0c-.3-.04-.5-.31-.46-.6l1.07-8.16c.04-.3.31-.5.6-.46.3.04.5.31.46.6l-1.07,8.16c-.04.27-.27.47-.53.47Z"/>
    <path class="cls-7" d="m247.15,102.79l-1.66-7.84c-.06-.29.12-.58.42-.64.29-.06.58.12.64.42l1.44,6.83,11.09-1.84c.29-.05.57.15.62.44.05.29-.15.57-.44.62l-12.11,2.01Z"/>
  </g>
  <g>
    <polygon class="cls-4" points="270.84 151.26 270.84 116.82 160.6 116.82 144.48 116.82 128.98 116.82 128.98 374.95 160.6 374.95 160.6 266.3 253.79 266.3 253.79 231.86 160.6 231.86 160.6 151.26 270.84 151.26"/>
    <path class="cls-4" d="m416,374.95h34.11l-83.1-258.13h-26.98l-83.1,258.13h34.11l16.99-56.63h90.98l16.99,56.63Zm-97.64-91.08l35.15-117.17,35.16,117.17h-70.31Z"/>
    <path class="cls-4" d="m632.51,352.45l-29.09-26.18c5.54-13.55,8.32-29.03,8.32-46.43v-73.14c0-18.93-3.28-35.59-9.85-49.97-6.56-14.38-15.84-25.51-27.83-33.38-11.99-7.87-25.84-11.81-41.55-11.81s-29.56,3.94-41.55,11.81c-11.99,7.87-21.27,19-27.83,33.38-6.56,14.38-9.84,31.04-9.84,49.97v73.14c0,18.94,3.28,35.6,9.84,49.98,6.56,14.38,15.84,25.5,27.83,33.37,11.99,7.87,25.84,11.81,41.55,11.81s29.56-3.94,41.55-11.81c5.15-3.38,9.79-7.36,13.93-11.93l28.29,23.82,16.23-22.62Zm-75.43-20.33c-7.08,4.79-15.27,7.19-24.57,7.19s-17.5-2.4-24.58-7.19c-7.08-4.79-12.56-11.6-16.43-20.42-3.88-8.81-5.81-19.02-5.81-30.62v-75.63c0-11.6,1.94-21.8,5.81-30.62,3.87-8.81,9.35-15.62,16.43-20.42,7.08-4.79,15.27-7.19,24.58-7.19s17.49,2.4,24.57,7.19c7.08,4.79,12.56,11.6,16.44,20.42,3.87,8.82,5.81,19.02,5.81,30.62v75.63c0,7.68-4.01,34.65-17.1,46.93-1.61,1.51-3.33,2.87-5.15,4.11Z"/>
  </g>
  <g>
    <path class="cls-3" d="m320.98,29.29c-24.01,0-43.47,12.61-43.47,28.17,0,4.18,1.41,8.15,3.93,11.72l-9.18,17.72,19.2-8.76c7.75,4.65,18.12,7.49,29.52,7.49,24.01,0,43.47-12.61,43.47-28.17s-19.46-28.17-43.47-28.17Z"/>
    <path class="cls-8" d="m271.06,88.04l9.75-18.82c-2.55-3.71-3.85-7.66-3.85-11.77,0-15.83,19.74-28.71,44.01-28.71s44.01,12.88,44.01,28.71-19.74,28.71-44.01,28.71c-10.96,0-21.44-2.63-29.55-7.42l-20.37,9.3Zm49.92-58.21c-23.67,0-42.93,12.4-42.93,27.63,0,3.97,1.29,7.81,3.84,11.41l.19.27-8.62,16.62,18.04-8.23.24.15c7.97,4.78,18.36,7.42,29.24,7.42,23.67,0,42.93-12.4,42.93-27.63s-19.26-27.63-42.93-27.63Z"/>
    <path class="cls-8" d="m348.39,46.82h-54.66c-.3,0-.54-.24-.54-.54s.24-.54.54-.54h54.66c.3,0,.54.24.54.54s-.24.54-.54.54Z"/>
    <path class="cls-8" d="m348.39,54.77h-54.66c-.3,0-.54-.24-.54-.54s.24-.54.54-.54h54.66c.3,0,.54.24.54.54s-.24.54-.54.54Z"/>
    <path class="cls-8" d="m327.09,62.71h-33.35c-.3,0-.54-.24-.54-.54s.24-.54.54-.54h33.35c.3,0,.54.24.54.54s-.24.54-.54.54Z"/>
  </g>
  <g>
    <path class="cls-3" d="m34.95,160.13c19.01,0,34.41,9.99,34.41,22.3,0,3.31-1.12,6.46-3.11,9.28l7.27,14.03-15.2-6.94c-6.14,3.68-14.35,5.93-23.37,5.93-19.01,0-34.41-9.99-34.41-22.3s15.41-22.3,34.41-22.3Z"/>
    <path class="cls-8" d="m74.72,206.88l-16.37-7.47c-6.43,3.78-14.72,5.86-23.4,5.86-19.27,0-34.95-10.25-34.95-22.84s15.68-22.84,34.95-22.84,34.95,10.25,34.95,22.84c0,3.25-1.02,6.39-3.03,9.32l7.84,15.13Zm-16.43-8.69l14.04,6.41-6.7-12.93.19-.27c2-2.83,3.02-5.85,3.02-8.97,0-12-15.2-21.76-33.87-21.76S1.08,170.43,1.08,182.43s15.2,21.76,33.87,21.76c8.6,0,16.8-2.08,23.09-5.86l.24-.15Z"/>
    <path class="cls-8" d="m56.52,174.12H13.25c-.3,0-.54-.24-.54-.54s.24-.54.54-.54h43.27c.3,0,.54.24.54.54s-.24.54-.54.54Z"/>
    <path class="cls-8" d="m56.52,180.41H13.25c-.3,0-.54-.24-.54-.54s.24-.54.54-.54h43.27c.3,0,.54.24.54.54s-.24.54-.54.54Z"/>
    <path class="cls-8" d="m39.66,186.94H13.25c-.3,0-.54-.24-.54-.54s.24-.54.54-.54h26.41c.3,0,.54.24.54.54s-.24.54-.54.54Z"/>
  </g>
  <g>
    <path class="cls-3" d="m299.74,242.33c-19.01,0-34.41,9.99-34.41,22.3,0,3.31,1.12,6.46,3.11,9.28l-7.27,14.03,15.2-6.94c6.14,3.68,14.35,5.93,23.37,5.93,19.01,0,34.41-9.99,34.41-22.3s-15.41-22.3-34.41-22.3Z"/>
    <path class="cls-8" d="m259.97,289.08l7.84-15.13c-2.01-2.94-3.03-6.07-3.03-9.32,0-12.59,15.68-22.84,34.95-22.84s34.95,10.25,34.95,22.84-15.68,22.84-34.95,22.84c-8.68,0-16.97-2.08-23.4-5.86l-16.37,7.47Zm39.77-46.21c-18.68,0-33.87,9.76-33.87,21.76,0,3.12,1.01,6.14,3.02,8.97l.19.27-6.7,12.93,14.04-6.41.24.15c6.3,3.78,14.5,5.86,23.09,5.86,18.68,0,33.87-9.76,33.87-21.76s-15.2-21.76-33.87-21.76Z"/>
    <path class="cls-8" d="m321.45,256.33h-43.27c-.3,0-.54-.24-.54-.54s.24-.54.54-.54h43.27c.3,0,.54.24.54.54s-.24.54-.54.54Z"/>
    <path class="cls-8" d="m321.45,262.62h-43.27c-.3,0-.54-.24-.54-.54s.24-.54.54-.54h43.27c.3,0,.54.24.54.54s-.24.54-.54.54Z"/>
    <path class="cls-8" d="m304.58,269.14h-26.41c-.3,0-.54-.24-.54-.54s.24-.54.54-.54h26.41c.3,0,.54.24.54.54s-.24.54-.54.54Z"/>
  </g>
  <g>
    <path class="cls-3" d="m450.66,196.48c24.01,0,43.47,12.61,43.47,28.17,0,4.18-1.41,8.15-3.93,11.72l9.19,17.72-19.2-8.76c-7.75,4.65-18.12,7.49-29.52,7.49-24.01,0-43.47-12.61-43.47-28.17s19.46-28.17,43.47-28.17Z"/>
    <path class="cls-8" d="m500.57,255.24l-20.37-9.3c-8.1,4.79-18.58,7.42-29.55,7.42-24.27,0-44.01-12.88-44.01-28.71s19.74-28.71,44.01-28.71,44.01,12.88,44.01,28.71c0,4.1-1.29,8.06-3.84,11.77l9.75,18.82Zm-20.43-10.51l18.04,8.23-8.62-16.62.19-.27c2.54-3.6,3.84-7.44,3.84-11.41,0-15.24-19.26-27.63-42.93-27.63s-42.93,12.4-42.93,27.63,19.26,27.63,42.93,27.63c10.88,0,21.27-2.63,29.24-7.42l.24-.15Z"/>
    <path class="cls-8" d="m477.9,214.02h-54.66c-.3,0-.54-.24-.54-.54s.24-.54.54-.54h54.66c.3,0,.54.24.54.54s-.24.54-.54.54Z"/>
    <path class="cls-8" d="m477.9,221.96h-54.66c-.3,0-.54-.24-.54-.54s.24-.54.54-.54h54.66c.3,0,.54.24.54.54s-.24.54-.54.54Z"/>
    <path class="cls-8" d="m443.36,229.91h-20.12c-.3,0-.54-.24-.54-.54s.24-.54.54-.54h20.12c.3,0,.54.24.54.54s-.24.54-.54.54Z"/>
  </g>
  <g>
    <polygon class="cls-2" points="480.32 355.62 476.73 367.26 485.66 367.2 489.62 356.92 480.32 355.62"/>
    <path class="cls-7" d="m476,367.8l3.94-12.77,10.42,1.46-4.33,11.26-10.03.06Zm4.7-11.58l-3.24,10.49,7.82-.05,3.58-9.3-8.16-1.14Z"/>
    <path class="cls-4" d="m476.2,366.31s-13.75,4.45-14.21,8.06l24.71-.14-.05-7.98-10.45.06Z"/>
    <polygon class="cls-7" points="487.47 372.72 487.48 374.92 461.23 375.08 461.22 372.71 487.47 372.72"/>
    <path class="cls-7" d="m480.91,372.54c-.3,0-.54-.24-.54-.54l-.03-4.79c0-.3.24-.54.54-.54h0c.3,0,.54.24.54.54l.03,4.79c0,.3-.24.54-.54.54h0Z"/>
    <path class="cls-7" d="m535.78,317.27s-29.74,4.93-34.77,7.75c-9.4,5.26-24.61,32.18-24.61,32.18l14.97,3.17,18.84-22.82s18,6.03,34.27,1.02c10.79-3.32,21.37-12.82,21.37-12.82l-17.08-25.15s-18.03-14.18-34.07-14.66c-3-.09-23.51,23.44-23.64,24.31-.5,3.2,6.53,11.19,6.53,11.19l20.69-14.87,6.94,14.36,10.57-3.66Z"/>
    <path class="cls-2" d="m560.04,252.21s.47,10.25-.39,11.43c-.86,1.18-6.62,5.53-6.62,5.53l10.21,22.38,17.64-1.67-1.55-18.07s-5.32-6.57-5.8-7.91c-.67-1.87-.65-11.83-.65-11.83l-12.84.13Z"/>
    <path class="cls-7" d="m562.9,292.13l-10.54-23.12.34-.26c1.59-1.2,5.84-4.51,6.51-5.42.46-.66.51-6.27.29-11.09-.01-.3.22-.55.51-.56.3-.01.55.22.56.51.11,2.45.41,10.54-.49,11.77-.78,1.08-5.05,4.37-6.39,5.38l9.87,21.64,16.73-1.59-1.49-17.37c-.89-1.1-5.31-6.61-5.78-7.94-.68-1.9-.69-10.98-.68-12.01,0-.3.24-.54.54-.54h0c.3,0,.54.24.54.54,0,2.74.1,10.19.62,11.64.33.93,3.6,5.15,5.71,7.76l.1.13,1.61,18.76-18.56,1.76Z"/>
    <path class="cls-7" d="m560.27,232.84c-2.13.62-7.34,2.05-6.65,5.94.78,4.44,2.54,10.01,3.52,12.94.39,1.15,1.56,1.85,2.75,1.64l13.4-2.37c1.23-.22,2.1-1.32,2.02-2.57-.26-4.2-.88-13.07-1.6-14.3-2.45-4.18-10.07-2.26-13.45-1.28Z"/>
    <path class="cls-2" d="m572.76,254.08c.59-.88.36-3.91-.16-7.31-.01-.1.02-.2.1-.26.79-.68,1.86-2.03,1.53-3.7-.29-1.45-1.29-.96-2.03-.35-.13.11-.33.03-.37-.14-.79-4.08-1.65-7.63-1.65-7.63l-15.93,2.81s.68,3.64,1.55,7.71c.04.18,2.43,9.82,2.97,10.64.29.44.76.77,1.36,1,0,0,1.17.66,6.96-.37l5.67-2.41Z"/>
    <path class="cls-7" d="m561.85,257.6c-1.24,0-1.76-.17-1.94-.25-.71-.28-1.25-.69-1.59-1.2-.62-.93-3.03-10.73-3.05-10.82-.87-4.03-1.55-7.69-1.55-7.72l-.1-.53,16.96-2.99.12.49s.8,3.33,1.56,7.17c.59-.39,1.12-.51,1.57-.35.48.17.79.61.93,1.31.4,2.01-.91,3.49-1.6,4.12.84,5.6.43,6.99.06,7.56-.17.25-.5.31-.75.15-.25-.17-.31-.5-.15-.75.2-.29.57-1.56-.25-6.93-.04-.28.06-.56.28-.75.51-.44,1.66-1.63,1.35-3.19-.07-.36-.18-.49-.23-.51-.08-.03-.39.03-.93.47-.21.17-.49.22-.74.13-.26-.09-.45-.32-.5-.59-.61-3.14-1.26-6-1.52-7.11l-14.89,2.63c.22,1.16.78,4.05,1.45,7.16.16.69,2.43,9.71,2.89,10.46.22.33.59.6,1.1.8l.07.03s1.28.51,6.6-.43c.29-.05.57.14.62.44.05.29-.14.57-.44.62-2.54.45-4.22.58-5.33.58Z"/>
    <path class="cls-7" d="m566.28,245.3c-.25,0-.47-.17-.53-.42l-.07-.33c-.07-.29.12-.58.41-.65.29-.07.58.12.65.41l.07.33c.07.29-.12.58-.41.65-.04,0-.08.01-.12.01Z"/>
    <path class="cls-7" d="m559.43,246.49c-.25,0-.48-.18-.53-.44l-.07-.39c-.05-.29.14-.57.43-.63.29-.06.57.14.63.43l.07.39c.05.29-.14.57-.43.63-.03,0-.07,0-.1,0Z"/>
    <path class="cls-7" d="m568.23,242.62s-.08,0-.13-.02c-2.14-.52-3.74-.27-3.76-.27-.3.05-.57-.15-.62-.44-.05-.29.15-.57.44-.62.07-.01,1.83-.29,4.19.28.29.07.47.36.4.65-.06.25-.28.41-.52.41Z"/>
    <path class="cls-7" d="m562.68,249.99s-.05,0-.07,0c-.72-.1-1.96-.37-2.23-1.07-.12-.31-.07-.88.18-2.83.12-.95.32-2.51.27-2.98-.47-.14-2.22.23-3.16,1.14-.21.21-.55.2-.76-.01-.21-.21-.2-.56.01-.76,1.1-1.06,3.12-1.63,4.12-1.41.5.11.7.38.78.59.17.44.07,1.43-.2,3.58-.11.83-.25,1.95-.23,2.3.18.14.81.32,1.36.4.3.04.5.31.46.61-.04.27-.27.47-.53.47Z"/>
    <path class="cls-2" d="m521.84,289.53c-2.15-.5-3.8-2.43-6.92-1.48-1.5.46-4.78-1.48-2.82-2.64,1.96-1.17,4.79-1.77,4.79-1.77l5.15,1.75,4-.53,2.73,7.37s-4.79-2.2-6.93-2.7Z"/>
    <path class="cls-7" d="m529.73,293.26l-1.18-.54s-4.76-2.18-6.83-2.66h0c-.74-.17-1.42-.5-2.07-.81-1.36-.65-2.64-1.27-4.57-.68-1.3.4-3.47-.55-4-1.74-.32-.71-.04-1.42.75-1.88,2.01-1.2,4.83-1.8,4.95-1.83l.14-.03,5.17,1.75,4.3-.57,3.33,8.99Zm-7.76-4.26c1.53.36,4.28,1.52,5.86,2.21l-2.14-5.77-3.7.49-5.12-1.74c-.59.14-2.87.71-4.48,1.67-.43.25-.35.42-.31.52.31.7,1.92,1.38,2.7,1.15,2.33-.71,3.93.06,5.35.74.63.3,1.22.59,1.85.73h0Z"/>
    <path class="cls-3" d="m575.68,264.18c-2.29-.57-10.54,6.32-14.99,5.06-1.35-.38-2.46-3.28-2.94-4.74-2.15-6.6-13.6,20.9-17.48,21.78l-16.21-2.97-1.82,8.46,14.76,6.66s-1.76,1.49-2.32,3.75c-.16.64,26.04,28.4,26.57,27.99,32.33-25.36,24.87-63.42,14.44-66Z"/>
    <path class="cls-8" d="m561.24,330.73c-.12,0-.26-.04-.42-.14-1.19-.77-8.37-8.2-14.16-14.33-3.3-3.49-6.35-6.78-8.61-9.26-4.02-4.43-3.98-4.57-3.89-4.93.39-1.57,1.3-2.78,1.91-3.45l-14.44-6.52,2.02-9.4,16.6,3.04c1.48-.54,4.76-6.19,7.4-10.75,4.41-7.6,7.21-12.26,9.26-12.03.62.07,1.08.53,1.36,1.39.8,2.45,1.81,4.17,2.57,4.39,2.41.68,6.29-1.37,9.41-3.01,2.47-1.3,4.42-2.33,5.56-2.05h0c3.7.92,6.93,5.84,8.43,12.85,3.08,14.35-1.02,37.12-22.67,54.11-.07.05-.18.12-.34.12Zm-25.99-28.59c1.63,2.44,23.16,25.16,25.95,27.4,21.01-16.65,24.99-38.83,21.99-52.81-1.39-6.5-4.39-11.22-7.64-12.03h0c-.74-.18-2.81.91-4.8,1.96-3.46,1.83-7.38,3.9-10.21,3.1-1.5-.42-2.62-3.01-3.3-5.1-.06-.19-.23-.62-.45-.65-.02,0-.03,0-.05,0-1.5,0-5.35,6.64-8.17,11.5-3.92,6.76-6.42,10.89-8.19,11.29l-.11.02-15.81-2.89-1.62,7.53,15.14,6.83-.65.55s-1.54,1.33-2.1,3.28Z"/>
    <polygon class="cls-4" points="511.33 291.18 507.44 280.61 514.96 277.9 520.71 291.78 514.07 294.56 511.67 291.56 511.33 291.18"/>
    <path class="cls-8" d="m513.91,295.21l-2.66-3.32-.39-.44-4.11-11.17,8.52-3.06,6.15,14.85-7.51,3.14Zm-2.11-4.32l.27.31,2.17,2.7,5.77-2.41-5.35-12.91-6.53,2.35,3.67,9.96Z"/>
    <path class="cls-2" d="m523.67,297.65l-4.28-1.47s-2.43,1.78-3.31,1.6c-1.83-.37-5.07-5.43-4.75-6.6.32-1.18,6.11-2.12,6.11-2.12,0,0-.89-2.45-.97-3.07-.02-.14,1.57-.34,2.04-.15.63.25,1.79,1.69,1.79,1.69l4.94,5.23-1.57,4.89Z"/>
    <path class="cls-7" d="m524.01,298.34l-4.54-1.56c-.8.56-2.57,1.72-3.51,1.53-1.31-.27-2.96-2.28-3.97-3.92-.54-.88-1.42-2.49-1.19-3.35.32-1.2,3.59-1.99,5.9-2.4-.28-.79-.72-2.1-.78-2.57l-.04-.31.26-.22c.38-.29,2-.42,2.56-.2.71.28,1.76,1.54,1.99,1.83l5.15,5.45-1.84,5.72Zm-6.91-11.98c.19.66.58,1.8.84,2.51l.22.61-.64.1c-2.78.45-5.44,1.27-5.68,1.74-.04.18.2,1.13,1.22,2.72,1.09,1.71,2.41,3.06,3.12,3.2.35.08,1.69-.63,2.88-1.51l.23-.17,4.03,1.39,1.31-4.06-4.75-5.03c-.52-.64-1.26-1.4-1.57-1.52-.18-.07-.79-.04-1.21.02Z"/>
    <path class="cls-3" d="m568.23,280.16c-5.33,6.21-12.68,17.82-21.48,14.45-13.32-5.09-23.7-7.42-23.91-6.91,0,0-1.69,11.27-1.66,11.55,0,0,10.82,4.96,26.49,11.72,6.53,2.82,16.97-5.13,24.03-11.59l-3.46-19.23Z"/>
    <path class="cls-8" d="m550.64,312.09c-1.13,0-2.2-.19-3.19-.62-15.49-6.68-26.39-11.67-26.5-11.72l-.28-.13-.03-.31c0-.09-.03-.35,1.66-11.68l.03-.13c.17-.41.38-.93,7.68,1.03,2.96.8,9.11,2.59,16.92,5.57,7.14,2.73,13.38-5.03,18.39-11.26.88-1.09,1.7-2.12,2.49-3.04.19-.23.53-.25.76-.06.23.19.25.53.06.76-.78.91-1.6,1.93-2.47,3.01-5.23,6.51-11.74,14.6-19.61,11.6-12.23-4.67-21.39-6.83-23.25-6.94-.58,3.89-1.38,9.32-1.56,10.75,1.98.9,12.2,5.54,26.13,11.55,6.12,2.64,16.13-4.79,23.45-11.49.22-.2.56-.19.76.03.2.22.19.56-.03.76-6.43,5.89-14.93,12.3-21.42,12.3Z"/>
    <path class="cls-7" d="m541.26,293.15c-.11,0-.22-.03-.32-.1-.24-.18-.29-.51-.12-.75l13.26-18.19c.17-.24.51-.29.75-.12.24.18.29.51.12.75l-13.26,18.19c-.11.14-.27.22-.44.22Z"/>
    <path class="cls-7" d="m565.57,250.25c.34.29-.55,1.84-1.98,2.17-2.34.54-3.5-.84-2.91-.89.23-.02,1.2.23,2.6-.13,1.5-.38,2.07-1.35,2.29-1.16Z"/>
    <path class="cls-5" d="m524.13,319.26c-.28,0-.52-.2-.57-.48-.06-.32.15-.62.47-.68l15.26-2.82c.32-.06.62.15.68.47.06.32-.15.62-.47.68l-15.26,2.82s-.07,0-.11,0Z"/>
    <path class="cls-7" d="m551.46,234.93c-.21.33.13,1.92.13,1.92,0,0-1.21.26-.77,2.13.43,1.87,1.95,1.13,1.95,1.13,0,0,.53,1.75,1.35,1.65.82-.1,1.72-1.92,1.72-1.92,0,0,.38,1.8,1.12,1.26.73-.53,1.34-1.92,1.34-1.92,0,0,.93,1.76,1.54,1.3.61-.46.62-1.93.87-1.68.24.25,1.48,1.7,2.22,1,.74-.7,1.07-1.85,1.07-1.85,0,0,1.38,1.05,2.05.74.67-.32.74-1.48.74-1.48,0,0,1.29.97,1.91.53.87-.61.82-1.62.82-1.62,0,0,1.39,2.39,2.31,1.43.52-.54.53-1.64.53-1.64,0,0,.99,1.56,1.6.8.54-.68-.3-1.65-.3-1.65,0,0,1.42-.44.84-1.56-.44-.87-1.33-.52-1.33-.52,0,0,.63-1.81-.66-2.4-1.06-.49-1.63.03-1.63.03,0,0-.97-2.25-2.11-1.36-.92.71-.91,1-.91,1,0,0-1.03-1.57-1.7-.87-.68.71-.88,1.29-.88,1.29,0,0-2.08-1.3-3.12-.33-1.2,1.12-1.17,1.33-1.17,1.33,0,0-.54-1.04-1.2-.26-.66.78-.79,1.26-.79,1.26,0,0-1.53-.63-1.91-.36-.48.34-.23,1.29-.23,1.29,0,0-.65-.9-1.69-.3-1.04.6-.85,1.17-1.08,1.23-.23.06-1.84-.78-2.59.41Z"/>
  </g>
  <g>
    <polygon class="cls-2" points="95.75 355.73 95.08 367.38 104 367.33 105.82 356.75 95.75 355.73"/>
    <path class="cls-7" d="m94.5,367.93l.74-12.79,11.2,1.14-1.99,11.59-9.95.06Zm1.75-11.6l-.61,10.52,7.9-.05,1.65-9.57-8.94-.91Z"/>
    <path class="cls-4" d="m94.55,366.44s-13.75,4.45-14.21,8.06l24.71-.14-.05-7.98-10.45.06Z"/>
    <polygon class="cls-7" points="105.81 372.84 105.82 375.05 79.57 375.2 79.56 372.84 105.81 372.84"/>
    <path class="cls-7" d="m99.25,372.67c-.3,0-.54-.24-.54-.54l-.03-4.79c0-.3.24-.54.54-.54h0c.3,0,.54.24.54.54l.03,4.79c0,.3-.24.54-.54.54h0Z"/>
    <polygon class="cls-2" points="67.57 355.73 65.59 367.59 74.52 367.54 76.34 356.96 67.57 355.73"/>
    <path class="cls-7" d="m64.96,368.13l2.17-13.01,9.84,1.38-1.99,11.57-10.02.06Zm3.06-11.8l-1.79,10.71,7.84-.05,1.65-9.59-7.7-1.08Z"/>
    <path class="cls-4" d="m65.06,366.64s-13.75,4.45-14.21,8.06l24.71-.14-.05-7.98-10.45.06Z"/>
    <polygon class="cls-7" points="76.33 373.05 76.34 375.26 50.09 375.41 50.08 373.04 76.33 373.05"/>
    <path class="cls-7" d="m69.77,372.88c-.3,0-.54-.24-.54-.54l-.03-4.79c0-.3.24-.54.54-.54h0c.3,0,.54.24.54.54l.03,4.79c0,.3-.24.54-.54.54h0Z"/>
    <path class="cls-7" d="m108.15,249.5l-9.84,11.16.56,4.73h-6.17s-16.38,43.28-19.43,51.23c-3.04,7.95-8.79,42.94-8.79,42.94l15.08,1.18s4.15-25.33,8.21-37.15c1.56-4.55,7.41-15.63,12.24-24.47-1.71,10.06-4.2,24.73-4.7,28.22-1.46,10.18-3.02,32.97-3.02,32.97l16.3.43,3.18-31.7s11.35-23.26,14.71-33.49c13.9-42.34-18.33-46.06-18.33-46.06Z"/>
    <path class="cls-5" d="m100.89,298.09s-.03,0-.05,0c-.32-.02-.56-.31-.54-.63l1.39-18.17c.02-.32.31-.56.63-.54.32.02.56.31.54.63l-1.39,18.17c-.02.31-.28.54-.58.54Z"/>
    <path class="cls-2" d="m97.63,195.49s1.8,9.16,1.19,10.34c-.61,1.18-3.32,6.88-3.32,6.88l10.29,17.75,15.65-3.88-1.37-16.41s-8.12-4.84-8.73-5.98c-.85-1.59-2.18-10.55-2.18-10.55l-11.54,1.84Z"/>
    <path class="cls-7" d="m105.53,231.08l-10.64-18.35.12-.26c.11-.23,2.72-5.73,3.32-6.9.31-.68-.4-5.71-1.24-9.99-.06-.29.13-.58.42-.63.29-.06.58.13.63.42.43,2.19,1.78,9.44,1.14,10.69-.53,1.01-2.65,5.49-3.19,6.61l9.95,17.16,14.81-3.67-1.31-15.67c-2.17-1.3-8.08-4.91-8.7-6.05-.87-1.62-2.1-9.8-2.23-10.73-.04-.29.16-.57.45-.61.3-.04.57.16.61.45.36,2.47,1.45,9.14,2.12,10.38.35.64,4.61,3.44,8.54,5.78l.24.14,1.43,17.14-16.49,4.08Z"/>
    <path class="cls-7" d="m100.02,175.78c2.2-.35,7.55-1.26,8.57,2.57,1.17,4.36,1.93,10.17,2.29,13.24.14,1.21-.63,2.34-1.81,2.66l-13.2,3.54c-1.21.32-2.47-.31-2.93-1.47-1.55-3.92-4.43-12.41-4.29-13.83.46-4.83,7.89-6.16,11.38-6.71Z"/>
    <path class="cls-2" d="m103.67,200.53c-3.27,1.34-7.69,1.77-9.21.78-.89-.58-1.97-3.51-2.97-6.92-.03-.1-3.02-12.34-3.02-12.34l15.15-4.06s.96,3.7,1.92,7.88c.04.19.26.26.38.13.66-.73,1.65-1.44,2.1.1.56,1.92-.68,3.54-1.37,4.17-.07.07-.1.17-.08.27.61,2.97,1.03,5.56.91,6.55-.07.54-.34,1.05-.76,1.51l-3.03,1.93Z"/>
    <path class="cls-7" d="m97.15,202.38c-1.24,0-2.32-.19-2.98-.62-.57-.37-1.53-1.52-3.2-7.23-.03-.1-2.13-8.68-3.03-12.37l-.13-.51,16.18-4.34.14.53s.89,3.44,1.8,7.36c.54-.47,1.05-.65,1.52-.54.5.12.87.55,1.08,1.27.54,1.87-.4,3.63-1.42,4.62.71,3.51,1,5.66.89,6.6-.08.63-.38,1.24-.9,1.81-.2.22-.54.24-.76.04-.22-.2-.24-.54-.04-.76.36-.4.57-.81.63-1.22.07-.56-.03-2.12-.9-6.38-.06-.29.04-.59.25-.78.18-.17,1.78-1.7,1.22-3.62-.12-.4-.25-.52-.29-.52-.07-.02-.38.06-.9.64-.19.2-.47.29-.74.22-.28-.07-.5-.3-.56-.59-.74-3.21-1.49-6.17-1.79-7.34l-14.11,3.78c1.05,4.28,2.84,11.62,2.89,11.82,1.58,5.38,2.44,6.42,2.75,6.61,1.34.86,5.57.46,8.71-.83.28-.11.59.02.7.29.11.28-.02.59-.29.7-1.98.81-4.6,1.36-6.72,1.36Z"/>
    <path class="cls-7" d="m93.09,190.97c-.24,0-.45-.16-.52-.39l-.11-.39c-.08-.29.09-.58.37-.66.29-.08.58.09.66.37l.11.39c.08.29-.09.58-.37.66-.05.01-.1.02-.15.02Z"/>
    <path class="cls-7" d="m99.91,189.19c-.24,0-.46-.16-.52-.4l-.1-.39c-.07-.29.1-.58.39-.66.29-.08.58.1.66.39l.1.39c.07.29-.1.58-.39.66-.05.01-.09.02-.13.02Z"/>
    <path class="cls-7" d="m98.02,186.59c-.18,0-.36-.09-.47-.27-.15-.26-.07-.59.19-.74.06-.04,1.54-.89,3.29-.4.29.08.45.38.37.67-.08.29-.38.45-.67.37-1.31-.37-2.44.28-2.45.29-.09.05-.18.07-.27.07Z"/>
    <path class="cls-7" d="m90.79,188.98c-.14,0-.27-.05-.38-.15-.21-.21-.22-.55-.01-.76,1.27-1.3,2.97-1.31,3.05-1.3.3,0,.54.25.53.54,0,.3-.24.53-.54.53h0s-1.34.02-2.27.98c-.11.11-.25.16-.39.16Z"/>
    <path class="cls-7" d="m97,193.77c-.53,0-1.53-.09-1.85-.75-.26-.55-.24-.74-.03-2.61.04-.4.1-.88.16-1.47.03-.3.29-.51.59-.48.3.03.51.3.48.59-.06.59-.12,1.08-.16,1.48-.19,1.71-.19,1.77-.07,2.01.13.1.63.17,1.05.15.3,0,.55.21.56.51.01.3-.21.55-.51.56-.06,0-.13,0-.22,0Zm-.87-1.21h0,0Z"/>
    <path class="cls-7" d="m108.1,189.8s-.36.63-1.13,1.93c-.89,1.5-12.17,3.83-13.06,3.65-1.95-.41-1.91-2.04-2.53-1.73-.76.38,2.24,8.01,3.36,8.9,1.13.88,9.3-.89,13.4-2.94,3.4-1.7-.04-9.8-.04-9.8Z"/>
    <path class="cls-2" d="m95.27,196.21c-.12.43,1.39,1.43,2.71,1.03,2.16-.65,2.36-2.49,1.87-2.24-.19.1-.85.8-2.15,1.16-1.4.39-2.35-.23-2.44.06Z"/>
    <path class="cls-7" d="m105.5,178.41s-11.53,6.96-18.37,4.08c-6.83-2.88,2.1-5.47,7.65-6.37,5.55-.9,13.42-1.83,10.71,2.29Z"/>
    <path class="cls-2" d="m67.71,227.18s-2.08.33-3.24-.42c-1.17-.75-.42-4.35-1.68-3.83-.6.25-.89,3.3-.89,3.3l-5.33-.71s-.7,4.62,2.27,6.35c2.47,1.44,8.69.06,8.72,0,.06-.11.16-4.69.16-4.69Z"/>
    <path class="cls-7" d="m62.27,233.05c-1.39,0-2.77-.18-3.71-.73-3.24-1.89-2.56-6.69-2.53-6.89l.08-.52,5.31.71c.23-1.89.62-2.96,1.16-3.19.4-.17.7-.08.88.03.54.31.64,1.09.75,1.99.09.69.2,1.64.54,1.86.81.52,2.35.42,2.87.34l.64-.1v.65c-.12,4.71-.16,4.79-.24,4.94-.11.2-.3.26-.38.28-.04.01-2.75.65-5.38.65Zm-5.22-6.93c-.07,1.19,0,4.07,2.05,5.27,1.93,1.12,6.63.33,7.94.05.03-.66.08-2.17.11-3.67-.77.05-2.08.02-2.98-.56-.76-.49-.91-1.63-1.03-2.63-.04-.33-.1-.78-.17-1.04-.2.45-.43,1.61-.54,2.74l-.05.56-5.33-.71Z"/>
    <polygon class="cls-3" points="60.57 218.65 61.77 230.92 56.01 231.82 54.4 219.07 60.57 218.65"/>
    <path class="cls-8" d="m55.55,232.43l-1.75-13.87,7.27-.49,1.3,13.29-6.81,1.06Zm-.54-12.87l1.47,11.63,4.71-.74-1.1-11.24-5.08.34Z"/>
    <path class="cls-2" d="m67.83,236.3s-7.48-1.81-9.19-1.61c-1.71.2-5.2-1.75-5.36-5.41-.16-3.67,1.68-3.72,1.68-3.72,0,0,.38,2.13.53,2.51.23.61,2.21,1.94,2.21,1.94,0,0,.3-3.4,1.33-3.75,1.03-.35,1.26,4.34,1.26,4.34l8.33-.44-.79,6.14Z"/>
    <path class="cls-7" d="m68.29,236.96l-.58-.14c-2.06-.5-7.68-1.76-9-1.6-1.1.13-2.56-.43-3.73-1.43-1.36-1.16-2.16-2.76-2.23-4.5-.07-1.67.24-2.89.92-3.62.58-.62,1.21-.65,1.28-.65h.46s.08.44.08.44c.18,1.02.42,2.2.5,2.41.08.18.62.67,1.28,1.16.19-1.21.62-2.97,1.58-3.3.26-.09.54-.05.77.11.79.53,1.07,2.8,1.17,4.18l8.45-.45-.95,7.38Zm-9.35-2.82c1.88,0,6.68,1.08,8.43,1.5l.63-4.9-8.23.44-.03-.54c-.08-1.65-.38-3.31-.66-3.78-.34.36-.73,1.8-.86,3.21l-.08.91-.76-.51c-.64-.43-2.14-1.5-2.41-2.19-.11-.29-.31-1.27-.44-1.96-.4.35-.81,1.21-.73,2.94.06,1.44.72,2.76,1.85,3.72,1.08.92,2.26,1.26,2.9,1.18.1-.01.22-.02.36-.02Z"/>
    <path class="cls-3" d="m112.51,203.65c-2.14.14-7.38,8.4-11.58,8.55-1.27.04-3.04-2.15-3.86-3.29-3.69-5.12-4.11,17.94-7.23,19.78l-23.13-2.99-1.56,8.08,25.67,1.42c4.02,3.57-3.94,26.87-1.65,31.03.29.53,39.99.88,40.05.27,3.45-36.04-6.97-63.51-16.72-62.85Z"/>
    <path class="cls-3" d="m117.03,212.65c-5.58-2.95-12.78,22.26-26.61,19.48-14.46-2.9-25.55-3.68-25.71-3.19,0,0-.51,10.39-.45,10.64,0,0,11.84,3.1,28.93,7.2,7.12,1.71,17.14-6.8,23.79-13.53,3.77-3.82,5.4-17.79.06-20.61Z"/>
    <path class="cls-7" d="m92.71,247.09c-.29,0-.53-.24-.54-.53,0-.3.23-.54.53-.55,3.11-.04,4.96-.07,8.59-.14,6.92-.13,14.24-10.3,19.16-18.81.15-.26.48-.35.74-.2.26.15.35.48.2.74-5.06,8.75-12.66,19.21-20.07,19.35-3.63.07-5.48.1-8.6.14h0Z"/>
    <path class="cls-7" d="m107.85,221.25c-.24-.18-.57-.14-.76.1-3.71,4.86-8.04,9.9-13.47,10.54l3.61-11.45c.09-.28-.07-.59-.35-.68-.28-.09-.59.07-.68.35l-3.69,11.68c-.02.05-.02.11-.02.16-.73,0-1.47-.07-2.23-.24-8.46-1.84-15.04-2.78-18.21-3.18-7.76-.97-7.92-.5-8.06-.09l-.03.08-.25,11.03c0,.3.23.54.53.55h.01c.29,0,.53-.23.54-.53l.24-10.53c1.93-.1,11.89.86,25.01,3.72,7.3,1.59,12.92-4.24,17.91-10.78.18-.24.14-.57-.1-.76Z"/>
  </g>
  <g>
    <path class="cls-7" d="m204.47,363.58s-20.03-22.35,18.32-14.44l.11-3.14s29.1.11,31.74-1.24l-.21,3.74s29.84-4.12,33.84,1.41c4.68,6.47-7.79,23.22-26.17,20.58-3.54-.51-17.93-1.03-17.93-1.03l-15.84,2.55-23.86-8.43Z"/>
    <path class="cls-7" d="m206.5,348.56c-10.41-.95-9.74,10.21-2.52,16.72,9.32,8.41,39.47,9.67,39.47,9.67l6.36-6.84s-25.47-17.93-43.32-19.55Z"/>
    <path class="cls-5" d="m247.54,375.39c-.06,0-.13-.01-.19-.03-.31-.1-.47-.44-.36-.74l2.13-6.25c-25.65-15.89-41.54-18.61-41.7-18.64-.32-.05-.53-.35-.48-.67s.35-.54.67-.48c.16.03,16.45,2.82,42.53,19.05l.39.25-2.43,7.13c-.08.24-.31.4-.55.4Z"/>
    <path class="cls-7" d="m281.22,350.52c10.41-.95,8.99,9.53,1.94,16.23-9.7,9.23-39.71,8.2-39.71,8.2l-4.29-5.53s24.2-17.28,42.06-18.9Z"/>
    <path class="cls-5" d="m233.43,373.71c-.19,0-.37-.09-.49-.26-.18-.27-.11-.63.16-.81,21.67-14.4,44.22-24.18,44.44-24.28.3-.13.64,0,.77.31.13.3,0,.64-.31.77-.22.1-22.68,9.84-44.26,24.18-.1.07-.21.1-.32.1Z"/>
    <path class="cls-2" d="m235.63,288.59s.39,11.63-.54,12.96c-.92,1.33-5.75,4.35-5.75,4.35l16.46,11.59,9.87-11.35s-5.29-2.59-5.79-4.12c-.69-2.12-.57-13.42-.57-13.42h-13.68Z"/>
    <path class="cls-7" d="m245.88,318.2l-17.52-12.33.69-.43c1.32-.82,4.89-3.18,5.6-4.2.51-.74.63-7,.44-12.63l1.08-.04c.07,1.97.34,11.88-.63,13.29-.77,1.11-3.82,3.15-5.23,4.06l15.4,10.84,9.1-10.46c-1.57-.81-4.98-2.7-5.44-4.12-.71-2.18-.6-13.13-.59-13.59h1.08c-.03,3.13,0,11.59.54,13.26.3.91,3.4,2.77,5.51,3.81l.63.31-10.65,12.25Z"/>
    <path class="cls-7" d="m238.57,272.24s-6.27.94-6.27,4.7c0,4.29.73,9.81,1.16,12.71.17,1.15,1.16,1.99,2.31,1.99h12.99c1.19,0,2.19-.89,2.33-2.07.46-3.98,1.35-12.4.87-13.67-1.61-4.32-13.39-3.67-13.39-3.67Z"/>
    <path class="cls-2" d="m239.71,296.08c3.68.43,8.28-.27,9.56-1.55.75-.75,1.05-3.71,1.13-7.09,0-.1.06-.19.14-.23.91-.52,2.23-1.64,2.19-3.31-.03-1.45-1.12-1.15-1.98-.68-.15.08-.34-.03-.34-.2-.07-4.07-.3-7.64-.3-7.64h-16.47s.03,3.63.19,7.7c0,.18-.19.3-.35.21-.87-.5-2.07-.92-2.11.61-.04,1.9,1.65,3.08,2.53,3.49.09.04.15.13.16.23.19,2.87.47,5.36.86,6.23.22.48,1.31,1.27,1.86,1.59l2.93.63Z"/>
    <path class="cls-7" d="m241.95,296.74c-.8,0-1.58-.04-2.3-.12-.3-.03-.51-.3-.47-.6.03-.3.3-.51.6-.47,3.56.41,7.99-.26,9.11-1.39.25-.25.84-1.4.98-6.72,0-.28.16-.55.41-.69.59-.34,1.95-1.29,1.92-2.83,0-.35-.09-.49-.14-.52-.08-.05-.41-.05-1.05.3-.24.13-.52.13-.76-.01-.23-.14-.38-.38-.38-.65-.05-3.13-.2-5.99-.27-7.11h-15.42c.02,1.16.06,4.04.18,7.14.01.28-.13.55-.37.69-.24.14-.54.15-.78,0-.7-.41-1.07-.41-1.16-.36-.06.04-.13.21-.14.52-.04,1.87,1.99,2.88,2.22,2.99.27.12.45.39.47.68.27,4.11.59,5.56.82,6.05.12.26.96.95,1.64,1.35.26.15.34.48.19.74-.15.26-.48.34-.74.19-.02,0-1.71-1.03-2.08-1.84-.37-.83-.67-2.88-.9-6.27-1.3-.66-2.74-2.05-2.7-3.92.02-.7.25-1.18.69-1.43.44-.25,1.03-.21,1.75.12-.14-3.82-.17-7.16-.17-7.19v-.54s17.52,0,17.52,0l.03.5s.22,3.35.29,7.19c.68-.29,1.23-.31,1.65-.07.43.25.66.73.68,1.43.05,2.01-1.53,3.23-2.33,3.72-.15,5.54-.81,6.83-1.29,7.31-1.2,1.2-4.59,1.82-7.7,1.82Zm-8.27-8.86s0,0,0,0c0,0,0,0,0,0Z"/>
    <path class="cls-3" d="m264.04,350.33s-28.78,5.49-42.29,0c-.79-.32,4.79-21.23,4.79-21.23-6.61-2.74-11.92-6.33-11.71-6.88,0,0,9.32-22.17,16.39-19.03,9.93,4.42,17.76.67,21.33-.42,6.78-2.06,17.61,19.63,17.61,19.63.57,1.44-7.37,4-11.91,6.5,0,0,7.05,20.76,5.79,21.41Z"/>
    <path class="cls-7" d="m245.88,287.29h0c-.4,0-.72-.33-.71-.73v-.39c0-.4.32-.71.73-.71.4,0,.72.33.71.73v.39c0,.39-.33.71-.72.71Z"/>
    <path class="cls-7" d="m238.25,287.29c-.39,0-.71-.32-.72-.71v-.39c0-.4.31-.72.71-.73h0c.39,0,.71.32.72.71v.39c0,.4-.31.72-.71.73h0Z"/>
    <path class="cls-7" d="m236.61,285.35c-.18,0-.36-.09-.46-.26-.15-.26-.07-.59.19-.74,1.49-.89,3.07-.47,3.14-.45.29.08.45.38.38.66-.08.29-.37.46-.66.38-.02,0-1.22-.31-2.3.33-.09.05-.18.08-.28.08Z"/>
    <path class="cls-7" d="m247.5,285.35c-.09,0-.19-.02-.28-.08-1.09-.65-2.29-.34-2.3-.33-.29.08-.58-.09-.66-.38-.08-.29.09-.58.37-.66.07-.02,1.65-.44,3.14.45.26.15.34.48.19.74-.1.17-.28.26-.46.26Z"/>
    <path class="cls-7" d="m241.94,291.22c-.26,0-.49-.19-.53-.45-.05-.29.15-.57.44-.62.52-.09,1.07-.23,1.38-.35-.27-.33-.73-.93-1.26-2.31-.11-.28.03-.59.31-.7.28-.11.59.03.7.31.5,1.29.89,1.78,1.13,2.06.19.23.4.48.32.89-.04.23-.14.78-2.4,1.15-.03,0-.06,0-.09,0Zm1.45-1.22h0,0Z"/>
    <path class="cls-7" d="m244.95,291.97c.25.37-1.03,1.64-2.51,1.57-2.42-.11-3.17-1.77-2.59-1.65.23.05,1.11.55,2.56.58,1.57.04,2.37-.75,2.54-.5Z"/>
    <rect class="cls-1" x="236.64" y="336.99" width="10.29" height="19.19"/>
    <path class="cls-8" d="m247.47,356.72h-11.37v-20.27h11.37v20.27Zm-10.29-1.08h9.21v-18.12h-9.21v18.12Z"/>
    <path class="cls-2" d="m274.22,339.06c-2.4,4.38-21.43,12.59-21.43,12.59,0,0-6.36,2.32-7.22,2.03-1.79-.6-4.68-5.82-4.29-6.89.39-1.07,5.6-1.18,5.6-1.18,0,0,.1-2.53.06-3.13,0-.13,1.35-.04,1.81.2.61.32,1.67,1.83,1.67,1.83l1.3,1.59,12.2-10.77-4.95-9.8,8.37-3.62s9.51,12.4,6.9,17.15Z"/>
    <path class="cls-7" d="m245.72,354.24c-.14,0-.25-.01-.33-.04-1.54-.51-3.25-3.35-3.94-4.77-.65-1.34-.88-2.28-.69-2.81.41-1.14,3.48-1.45,5.59-1.52.03-.86.06-2.18.04-2.56l-.02-.32.28-.2c.42-.27,1.9-.04,2.34.19.67.36,1.63,1.68,1.85,1.99l.93,1.14,11.47-10.12-5.02-9.94,9.28-4.02.26.33c.4.52,9.69,12.73,6.95,17.73h0c-2.46,4.49-20.91,12.49-21.69,12.83-2.24.82-5.94,2.09-7.28,2.09Zm1.75-11.27c0,.91-.06,2.45-.07,2.66l-.02.51h-.51c-2.45.06-4.84.46-5.12.86-.22.86,2.41,5.66,3.97,6.18.55.1,4-.98,6.87-2.03,6.5-2.81,19.32-9.02,21.14-12.35h0c1.94-3.53-3.89-12.6-6.6-16.22l-7.46,3.23,4.88,9.67-12.93,11.41-1.67-2.06c-.41-.58-1.14-1.49-1.48-1.67-.17-.09-.65-.17-1.01-.19Z"/>
    <path class="cls-2" d="m212.38,339.66c2.5,4.4,18.52,11.08,18.52,11.08,0,0,6.56,2.36,7.45,2.08,1.84-.59,4.79-5.8,4.38-6.87-.41-1.08-6.07-1.18-6.07-1.18,0,0-.05-2.59-.01-3.19,0-.13-1.16-.04-1.63.2-.62.32-1.7,1.83-1.7,1.83l-1.32,1.58-10.5-10.06,4.03-10.37-7.74-3.22s-8.1,13.34-5.39,18.12Z"/>
    <path class="cls-7" d="m238.19,353.38c-1.36,0-5.18-1.3-7.47-2.12-.69-.29-16.24-6.82-18.8-11.33-2.84-4.99,5.06-18.11,5.4-18.66l.24-.4,8.66,3.6-4.1,10.53,9.82,9.41.94-1.13c.22-.3,1.2-1.63,1.89-1.98.39-.2,1.72-.48,2.15-.19l.26.17v.34c-.03.38-.01,1.75,0,2.63,2.28.07,5.61.37,6.05,1.51.2.52-.02,1.44-.64,2.73-.82,1.69-2.58,4.37-4.08,4.85-.08.03-.19.04-.32.04Zm-20.19-31.16c-2.32,3.94-7.17,13.61-5.15,17.17,2.38,4.19,18.1,10.79,18.26,10.85,2.95,1.06,6.52,2.16,7.09,2.06,1.57-.5,4.25-5.29,4.02-6.17-.29-.38-2.91-.78-5.57-.82h-.52s-.01-.53-.01-.53c0-.09-.04-1.75-.03-2.7-.29.03-.66.1-.83.19-.34.18-1.11,1.09-1.51,1.66l-.02.03-1.69,2.03-11.18-10.71,3.97-10.22-6.83-2.84Z"/>
    <path class="cls-3" d="m219.71,314.18l-4.88,8.45s5.7,5.1,11.16,6.29l6.42-8.26-12.7-6.47Z"/>
    <polygon class="cls-3" points="254.24 323.5 257.97 329.64 270.51 322.94 264.86 314.18 254.24 323.5"/>
    <path class="cls-7" d="m253.39,274.53c-.7-.89-2.01-1.27-2.63-1.4-.24-1.21-.82-2.34-2.16-2.15-2.73.39-2.99-3.06-5.55-2.66-2.56.39-1.2,1.38-3.84,2.17-2.65.79-3.93-1.12-4.7,1.51-.77,2.63-2.82,1.94-3.76,3.71-.94,1.78-.67,3.85.61,4.54,1.28.69-.72,2.09.31,3.57,1.02,1.48,5.4,1.35,6.17-.82.77-2.17,1.18-3.65,2.81-3.75,1.63-.1,3.59.99,4.7.59,1.11-.39,2.63-1.89,3.23-1.5.05.03.1.08.15.12.07.17.14.33.22.47.6,1.08,1.55,1.89,1.21,3.4-.34,1.51,3.54-.08,2.93-1.84-1.24-3.63,1.88-3.96.3-5.97Z"/>
  </g>
  <path class="cls-7" d="m644.55,375.49H27.02c-.3,0-.54-.24-.54-.54s.24-.54.54-.54h617.53c.3,0,.54.24.54.54s-.24.54-.54.54Z"/>
</svg>