<?xml version="1.0" encoding="utf-8"?>
<!-- Generator: Adobe Illustrator 27.3.1, SVG Export Plug-In . SVG Version: 6.00 Build 0)  -->
<svg version="1.1" id="Layer_1" xmlns="http://www.w3.org/2000/svg" xmlns:xlink="http://www.w3.org/1999/xlink" x="0px" y="0px"
	 viewBox="0 0 228.1 61.8" style="enable-background:new 0 0 228.1 61.8;" xml:space="preserve">
<style type="text/css">
	.st0{fill:#6967AF;}
	.st1{fill:#47B96D;}
</style>
<g>
	<path class="st0" d="M43.8,49.7l-9.8-15c5.5-3.2,9.2-9.2,9.2-16.1C43.2,8.4,35.1,0.2,25,0l0,0H0v37.6l8.5-9.8L9.2,27l3.3-3.7
		l8.6,13.5l0,0l8.2,13L43.8,49.7L43.8,49.7z M25,12.2L25,12.2c3.4,0.2,6.1,2.9,6.1,6.4c0,2.6-1.5,4.8-3.8,5.8l-0.8-1.2h-14V12.3
		L25,12.2L25,12.2z"/>
	<g id="square-shape">
		<rect x="6.6" y="37.4" class="st0" width="4" height="4"/>
		<rect x="11.8" y="37.4" class="st0" width="4" height="4"/>
		<rect x="6.6" y="42.4" class="st0" width="4" height="4"/>
		<rect x="11.8" y="42.4" class="st0" width="4" height="4"/>
	</g>
</g>
<g>
	<path class="st0" d="M62.9,20.7c5.2,0,12.5,3.2,12.5,14.5v2.3H56c0.7,3.1,2.9,5.2,6.3,5.2c2.8,0,4.6-1.5,6-3.3l5.8,4.3
		c-2.6,3.4-7.2,5.3-11.4,5.3c-8.1,0-15-5.3-15-14.2S54.2,20.7,62.9,20.7L62.9,20.7z M67,31.8c0-3.1-2.3-5.1-5.2-5.1
		c-3.1,0-5.6,2-5.8,5.1H67z"/>
	<path class="st0" d="M88.9,48.4h-8.3V6.3h8.3V48.4z"/>
	<path class="st0" d="M104.1,12.9c0,2.6-2.1,4.9-4.8,4.9s-4.8-2.2-4.8-4.9c0-2.8,2.2-4.9,4.8-4.9S104.1,10.2,104.1,12.9z
		 M103.4,48.4H95V21.4h8.3V48.4z"/>
	<path class="st1" d="M135.9,12.1l-6,6.5c-1.4-1.8-4.2-2.6-6.3-2.6c-2.4,0-5.8,1.1-5.8,4.1c0,3.5,4.2,4.2,8.5,5.5
		c4.7,1.5,9.6,3.7,9.6,10.9c0,9-7.2,13-15.2,13c-5.1,0-9.5-1.5-13.2-5l6.2-6.8c1.8,2.3,4.6,3.7,7.6,3.7c2.4,0,6-1.1,6-4.1
		c0-3.5-4.2-4.3-8.6-5.8c-4.8-1.6-9.9-3.8-9.9-10.7c0-8.4,7.3-12.8,15-12.8C128.2,8,132.5,9.2,135.9,12.1L135.9,12.1z"/>
	<path class="st1" d="M138.6,21.4h9l7,17.9h0.1l6-17.9h8.6l-12.1,31.2c-2.3,6-3.5,9.2-11.6,9.2c-2.1,0-4.2-0.3-6.2-1l1.1-6.8
		c1.3,0.6,2.5,0.8,3.9,0.8c4.5,0,4.8-2.6,6.2-6.1L138.6,21.4L138.6,21.4z"/>
	<path class="st1" d="M172.3,48.4V21.4h8V25h0.1c1.5-2.7,4.5-4.3,7.9-4.3c6.9,0,10,3.5,10,12.4v15.3H190V34.5c0-4.8-1.4-6.5-4.3-6.5
		c-3.3,0-5,2-5,6.6v13.8L172.3,48.4L172.3,48.4z"/>
	<path class="st1" d="M228.1,24.3l-5.5,5.8c-0.9-1.3-2.6-2.1-4.1-2.1c-4.1,0-6.7,2.8-6.7,6.9s2.7,6.8,6.7,6.8c1.2,0,2.8-0.5,4.1-2.1
		l5.5,5.8c-2.4,2.5-6.2,3.6-9.6,3.6c-8.4,0-15-5.6-15-14.2s6.7-14.2,15-14.2C221.9,20.7,225.7,21.8,228.1,24.3z"/>
</g>
</svg>
