<?xml version="1.0" encoding="UTF-8"?>
<svg id="Layer_1" data-name="Layer 1" xmlns="http://www.w3.org/2000/svg" viewBox="0 0 228.13 61.81">
  <defs>
    <style>
      .cls-1 {
        fill: #19204c;
      }

      .cls-2 {
        fill: #3f70b7;
      }
    </style>
  </defs>
  <g>
    <path class="cls-1" d="m43.84,49.72l-9.82-15.04c5.52-3.23,9.23-9.21,9.23-16.07C43.25,8.45,35.11.19,25,0h0s-25,0-25,0v37.62l8.49-9.75.72-.82,3.27-3.68,8.62,13.51s0,0,0,0l8.22,12.95,14.51-.11ZM25.01,12.25h0c3.38.16,6.07,2.94,6.07,6.36,0,2.59-1.55,4.81-3.76,5.8l-.82-1.25h-13.99v-10.9h12.49Z"/>
    <g id="square-shape">
      <rect class="cls-1" x="5.75" y="36.58" width="4.72" height="4.72"/>
      <rect class="cls-1" x="11.91" y="36.58" width="4.72" height="4.72"/>
      <rect class="cls-1" x="5.75" y="42.48" width="4.72" height="4.72"/>
      <rect class="cls-1" x="11.91" y="42.48" width="4.72" height="4.72"/>
    </g>
  </g>
  <g>
    <path class="cls-1" d="m62.89,20.71c5.24,0,12.48,3.23,12.48,14.48v2.34h-19.38c.67,3.06,2.9,5.24,6.29,5.24,2.84,0,4.57-1.45,5.96-3.29l5.85,4.29c-2.62,3.4-7.18,5.35-11.42,5.35-8.08,0-15.04-5.35-15.04-14.2s6.57-14.2,15.26-14.2Zm4.12,11.14c0-3.06-2.28-5.12-5.18-5.12-3.12,0-5.57,2-5.85,5.12h11.03Z"/>
    <path class="cls-1" d="m88.9,48.44h-8.35V6.34h8.35v42.1Z"/>
    <path class="cls-1" d="m104.05,12.85c0,2.62-2.12,4.85-4.85,4.85s-4.85-2.23-4.85-4.85c0-2.78,2.23-4.85,4.85-4.85s4.85,2.23,4.85,4.85Zm-.67,35.59h-8.35v-27.07h8.35v27.07Z"/>
    <path class="cls-2" d="m135.9,12.13l-5.96,6.52c-1.39-1.78-4.18-2.62-6.29-2.62-2.4,0-5.85,1.11-5.85,4.07,0,3.45,4.18,4.18,8.52,5.51,4.73,1.45,9.64,3.73,9.64,10.86,0,8.97-7.18,12.98-15.2,12.98-5.07,0-9.52-1.45-13.25-4.96l6.18-6.79c1.84,2.34,4.62,3.73,7.57,3.73,2.4,0,6.02-1.06,6.02-4.12,0-3.45-4.18-4.34-8.58-5.79-4.85-1.56-9.91-3.79-9.91-10.69,0-8.41,7.35-12.81,15.04-12.81,4.4,0,8.69,1.17,12.09,4.12Z"/>
    <path class="cls-2" d="m138.57,21.37h9.02l6.96,17.88h.11l5.96-17.88h8.58l-12.14,31.19c-2.34,6.02-3.51,9.25-11.58,9.25-2.12,0-4.23-.33-6.24-1l1.11-6.85c1.28.56,2.51.84,3.9.84,4.46,0,4.79-2.56,6.18-6.13l-11.86-27.29Z"/>
    <path class="cls-2" d="m172.32,48.44v-27.07h8.02v3.68h.11c1.5-2.73,4.46-4.34,7.91-4.34,6.85,0,10.02,3.51,10.02,12.42v15.32h-8.35v-13.92c0-4.79-1.45-6.46-4.34-6.46-3.34,0-5.01,2.01-5.01,6.63v13.76h-8.35Z"/>
    <path class="cls-2" d="m228.13,24.33l-5.51,5.79c-.95-1.28-2.56-2.06-4.12-2.06-4.12,0-6.68,2.78-6.68,6.85s2.73,6.85,6.68,6.85c1.23,0,2.84-.5,4.12-2.06l5.51,5.79c-2.45,2.51-6.18,3.62-9.63,3.62-8.35,0-15.04-5.57-15.04-14.2s6.68-14.2,15.04-14.2c3.4,0,7.24,1.11,9.63,3.62Z"/>
  </g>
</svg>